<svg xmlns="http://www.w3.org/2000/svg" viewBox="0 0 640 640">
  <path fill="#3b1f14" d="M320 64c-97.2 0-176 78.8-176 176 0 53 23.7 100.5 61 132.8V496c0 44.2 35.8 80 80 80h70c44.2 0 80-35.8 80-80V372.8c37.3-32.3 61-79.8 61-132.8 0-97.2-78.8-176-176-176zM256 496V404.3c19.9 7.5 41.4 11.7 64 11.7s44.1-4.2 64-11.7V496c0 17.7-14.3 32-32 32h-64c-17.7 0-32-14.3-32-32zM320 368c-70.7 0-128-57.3-128-128S249.3 112 320 112s128 57.3 128 128-57.3 128-128 128z"/>
  <path fill="#8b4513" d="M320 160c-44.2 0-80 35.8-80 80 0 27.4 13.8 51.6 34.8 66v14c0 25 20.2 45.2 45.2 45.2s45.2-20.2 45.2-45.2v-14c21-14.4 34.8-38.6 34.8-66 0-44.2-35.8-80-80-80zm13.2 116.7-13.2 8.8-13.2-8.8c-11.4-7.6-18.8-20.5-18.8-36.7 0-23.5 19.1-42.6 42.6-42.6s42.6 19.1 42.6 42.6c0 16.2-7.4 29.1-18.8 36.7z"/>
  <circle cx="320" cy="240" r="18" fill="#f7f4ef"/>
</svg>
